<svg height="186" viewBox="0 0 698 186" width="698" xmlns="http://www.w3.org/2000/svg"><g fill="#fff" fill-rule="evenodd" transform=""><path d="m96.8272475 93.2545386c.0702707 8.0700324-6.416822 14.6643804-14.4831556 14.7346504-8.0700321.066572-14.6680785-6.416822-14.7346507-14.4868539-.0702707-8.070032 6.416822-14.66438 14.4868541-14.7346506 8.0663336-.0665723 14.66438 6.416822 14.7309522 14.4868541m19.6398485-55.765943c22.705616-5.1991194 39.96518-2.5314225 46.292535 8.2185863 4.205146 7.138021 3.036433 16.8982477-3.37669 28.2303184-3.531399 6.2362721-8.548558 12.7440367-14.728802 19.2281569 18.199952 18.1572658 26.382975 36.2499628 19.703226 48.0504648-4.075699 7.200895-13.10733 11.069481-26.107405 11.180434h-.007397c-6.354533.052845-13.4914-.799046-21.133386-2.479618-6.838397 22.27263-17.7623508 35.882644-30.2640635 35.987634-13.3419277.114307-25.0290651-15.310305-32.1133091-39.358242-24.795407 6.662746-44.5278394 4.698355-51.40153708-6.976021-4.19774812-7.134322-3.03273432-16.887152 3.37299233-28.204429.00369845 0 .00369845-.003698.00369845-.003698 3.12930334-5.528056 7.4312848-11.281156 12.7033731-17.0573641-15.8756389-17.0740847-22.20565865-33.3660653-16.05417468-44.2260605 4.08309597-7.2119901 13.11842518-11.0805756 26.13699208-11.1915293 7.1650742-.0613083 15.3075359 1.0286354 24.010785 3.1377721 6.6240122-24.8570591 18.2048747-41.00333247 31.7693358-41.11722188 12.566801-.10717954 23.9436106 13.80928918 31.1938266 36.58081728zm-7.965669 2.0833627c-5.500239-15.9428048-13.1739982-25.8131724-21.0090837-25.7454714-9.0313897.0756036-17.1380126 12.5743724-22.2463576 31.5513576 12.1805564 3.9793884 25.0361838 9.6753228 37.5727613 16.7726749 12.506285 7.0789713 23.622271 14.8621751 32.932365 22.815513 5.014979-5.3165378 9.059201-10.5871231 11.896626-15.5998243 3.136291-5.5402879 6.18382-13.3255388 2.892193-18.9139066-3.962819-6.7342528-15.841673-8.3249156-31.81849-5.0739826 1.697514 6.6479062 3.071758 13.8972052 4.065273 21.6467662l.107255.8321527c-2.825621-1.7863545-5.758497-3.5320259-8.757945-5.2481098-.888344-5.4534832-1.993207-10.5880376-3.275949-15.3294314-5.118425 1.4222558-10.547214 3.2702259-16.1853291 5.5359186-3.2065618-1.6051301-6.3946313-3.1177988-9.5531132-4.5121169 8.1463525-3.6567749 15.9937583-6.5694149 23.3797943-8.73154zm-42.1088022 103.3311717c5.4339188 18.255356 13.6000228 30.127246 22.4496552 30.053146 7.7942513-.066793 15.115631-9.576738 20.293337-25.041972-7.150584-2.010408-14.6330983-4.669614-22.2461221-7.922371 2.7257625-1.368429 5.8435613-2.999448 9.1758706-4.807993 5.2897345 2.024099 10.4347445 3.706706 15.3432215 5.022239 1.261976-4.876554 2.331646-10.185368 3.171252-15.847621 3.01794-1.904705 5.939721-3.850094 8.698769-5.791783-.910591 8.45094-2.269056 16.316413-4.010349 23.47082 5.463569 1.069478 10.525968 1.60615 15.035448 1.56773 6.339155-.055477 14.56822-1.298158 17.752591-6.92351 4.445329-7.856508-2.315945-21.11593-16.180816-35.020485-9.534346 8.556537-20.890873 16.839924-33.300833 24.147023-12.3684681 7.280685-24.6517162 13.00986-36.1820242 17.094777zm-14.6273285-8.206558c-2.5760498-12.271292-4.0721381-26.152166-4.1977908-40.9612341-.1218278-14.3582743 1.0590694-27.8663909 3.288613-39.8986842-7.1099607-1.6838042-13.6952056-2.5501028-19.4545664-2.5004211-6.3650436.0517784-14.6310939 1.3055552-17.8265603 6.9530982-3.8516776 6.8033593.722058 17.8971956 11.5455555 30.1195461 5.4820892-5.3519799 11.7398991-10.6647178 18.6116588-15.7769318-.1590336 3.0808143-.2921781 6.5906495-.380941 10.2706137-4.6617837 3.7450781-8.9180656 7.5450678-12.6916401 11.3219658 3.7938409 3.7252658 8.112629 7.5067784 12.8987536 11.2608094.210812 3.580106.4955932 7.097338.8654388 10.529506-7.2489544-5.232897-13.702101-10.579105-19.2723572-15.900703-3.6515256 4.194906-6.6420232 8.309126-8.8618013 12.231834-3.1251958 5.518097-6.1616285 13.266363-2.8810976 18.836239 4.5763177 7.770251 19.4128866 8.551107 38.3567331 3.514353zm11.6714482-3.661047c10.5136835-3.771298 21.8006456-9.036884 33.009562-15.634629 11.4587095-6.747069 21.8651375-14.272897 30.5073655-21.9382785-8.53104-7.2311088-18.749095-14.3857481-30.0857414-20.8047832-11.5745401-6.551186-23.2972365-11.8012099-34.2585204-15.4526637-1.992786 10.9963528-3.0769371 23.4118945-2.9664443 36.4266105.1139773 13.4251409 1.4883823 26.1912179 3.7937786 37.4037439z"/><path d="m646.925726 42.9673653c-2.817337 0-3.79728.979943-3.79728 3.7972792v83.0501725c0 2.817336.979943 3.797279 3.79728 3.797279h6.737108c2.817336 0 3.674786-.979943 3.674786-3.797279v-46.6697874c2.449858-1.2249288 6.614616-1.8373932 12.616767-1.8373932 8.94198 0 13.351724 4.0422651 13.351724 12.0043022v36.5028784c0 2.817336.979943 3.797279 3.797279 3.797279h6.614616c2.817336 0 3.797279-.979943 3.797279-3.797279v-36.870357c0-16.4140458-8.452009-24.6210687-25.478519-24.6210687-6.492123 0-13.351724 1.1024359-14.699146 1.7149003v-23.2736471c0-2.8173362-.85745-3.7972792-3.674786-3.7972792zm-65.805897 67.3710837c0 16.046567 8.94198 25.11104 27.070926 25.11104 13.964188 0 23.028662-5.389687 27.315912-16.291553 1.102436-2.57235.244986-4.409744-2.57235-5.512179l-5.51218-1.592408c-2.939829-.979943-4.28725-.489971-5.389686 2.449858-2.082379 5.634672-6.614616 8.452008-13.351724 8.452008-8.696995 0-13.351724-4.28725-13.351724-12.004302v-18.1289459c0-7.9620372 4.409744-12.0043022 13.351724-12.0043022 6.737108 0 11.269345 2.6948434 13.351724 8.2070229 1.102436 2.9398291 2.449857 3.6747864 5.389686 2.5723505l5.389687-1.7149003c2.939829-1.1024359 3.674786-2.4498576 2.694843-5.5121796-3.307307-9.6769374-12.37178-16.0465671-26.213476-16.0465671-18.74141 0-28.173362 9.064473-28.173362 25.1110402zm-62.498589-1.102436c0 16.046567 9.064473 26.213476 28.173362 26.213476 12.861752 0 21.68124-3.919772 26.458462-11.759316 1.837393-2.817337 1.347422-4.777223-1.469914-6.124644l-4.287251-2.327365c-2.939829-1.592407-4.287251-1.347422-6.247137 1.469915-2.817336 4.28725-7.594559 6.492122-14.45416 6.492122-8.94198 0-13.964188-4.287251-13.964188-12.249288v-4.532236h36.992849c3.674787 0 5.51218-1.714901 5.51218-5.267194v-7.4720658c0-14.8216383-9.676937-25.3560259-28.295855-25.3560259-18.496425 0-28.418348 9.3094588-28.418348 26.4584619zm42.505029-13.7192026h-28.295855v-2.6948433c0-7.9620372 5.022208-12.4942737 14.209174-12.4942737 9.309459 0 14.086681 4.5322365 14.086681 12.4942737zm-95.571666-48.8746587c-3.062322 0-4.164758 1.1024359-4.164758 4.1647578v6.0021511c0 3.062322 1.102436 4.1647579 4.164758 4.1647579h21.068775v68.4735195c0 3.062322 1.102436 4.164758 4.164758 4.164758h7.104587c3.062322 0 4.164758-1.102436 4.164758-4.164758v-68.4735195h21.068775c3.062322 0 4.164758-1.1024359 4.164758-4.1647579v-6.0021511c0-3.0623219-1.102436-4.1647578-4.164758-4.1647578zm-40.872206 26.8259405c-3.307307-3.3073078-8.207023-4.8997152-14.821638-4.8997152-7.472066 0-14.576653 1.3474217-21.558747 4.042265-3.919772 1.5924075-5.022208 3.062322-5.879658 6.9820941l-8.94198 51.0795309c-.367479 2.082379.244986 2.939829 2.327365 2.939829h5.1447c1.959887 0 3.184815-.979943 3.552294-2.939829l8.329516-47.5272374c.122493-1.1024359.85745-1.959886 1.959886-2.5723504 3.797279-1.3474217 7.717051-1.9598861 11.881809-1.9598861 9.309459 0 13.229231 4.2872508 11.391838 14.0866811l-6.614616 37.9727928c-.489971 2.082379 0 2.939829 2.327365 2.939829h5.144701c1.959886 0 3.062322-.979943 3.429801-2.939829l6.737108-38.3402714c.734957-4.042265.734957-7.5945585 0-10.4118948 5.389687-2.2048718 10.411895-3.3073077 15.066624-3.3073077 9.186966 0 12.861752 4.6547294 11.146852 14.0866811l-6.614615 37.9727928c-.489972 2.082379 0 2.939829 2.327364 2.939829h5.144701c1.959886 0 3.062322-.979943 3.429801-2.939829l6.614615-37.4828213c2.817337-15.6790885-3.307307-24.6210687-18.863903-24.6210687-7.22708 0-14.699146 1.5924074-22.661183 4.8997152zm-110.883276 38.2177778c-2.449858 14.699146 6.492123 23.763619 23.641126 23.763619 17.638974 0 28.785826-8.207023 31.358177-22.906168l3.4298-19.9663397c2.572351-14.6991455-6.002151-24.0086043-23.518632-24.0086043-17.149003 0-28.785827 8.5745016-31.358177 23.1511542zm44.097437.367479c-1.592408 8.452009-8.574502 13.474217-18.986397 13.474217-10.289402 0-15.679088-5.022208-14.086681-13.474217l3.429801-20.0888321c1.592407-8.4520086 8.696994-13.4742167 18.986396-13.4742167 10.411895 0 15.679089 5.0222081 14.209174 13.4742167zm-66.418362-56.3467243c-1.959886 0-3.062322.979943-3.4298 2.9398291l-2.082379 11.7593164h-10.166909c-1.959886 0-3.062322.979943-3.429801 2.9398291l-.734957 4.2872508c-.367479 2.0823789.122493 2.9398291 2.449858 2.9398291h10.166909l-5.144701 28.7858268c-1.837394 10.044416-.979943 16.904017 2.327364 20.701296 3.307308 3.79728 9.921924 5.51218 19.843847 5.267194 2.327364-.122493 3.062322-.612464 3.552293-2.939829l.734958-4.409744c.489971-2.327364-.122493-2.939829-2.449858-2.939829-6.124644 0-10.044416-.979943-11.881809-3.062322-1.837394-2.082379-2.204872-6.369629-1.102436-12.861752l5.022208-28.5408408h16.046567c2.082379 0 2.939829-.6124644 3.307308-2.9398291l.734957-4.2872508c.489971-2.0823789 0-2.9398291-2.327365-2.9398291h-16.046567l2.082379-11.7593164c.367479-2.0823789-.244986-2.9398291-2.327365-2.9398291zm-38.612477-6.7371083c-.367479-1.9598861-1.224929-2.5723505-3.674787-2.5723505h-4.899715c-2.082379 0-3.552293.8574501-4.532236 2.6948433l-46.179816 81.3352718c-1.224928 2.082379-.734957 3.184815 1.592408 3.184815h4.777222c3.919772 0 5.022208-.489972 6.36963-2.817336l11.146852-19.96634h36.257892l4.042265 19.96634c.367479 2.327364 1.347422 2.817336 5.389687 2.817336h4.409743c2.204872 0 3.062322-1.102436 2.694844-3.184815zm-.734957 52.1819666h-29.520784l17.88396-32.3381202c2.939829-5.5121796 4.164758-11.3918378 4.164758-11.3918378h.612464v.3674787c-.489971 1.4699145-.244985 6.2471368.244986 11.146852z" fill-opacity=".87"/></g></svg>